<svg xmlns="http://www.w3.org/2000/svg" viewBox="0 0 320 400" style="--night:#423642;--mist:#b18c95;--light:#d5c8b2">
  <rect width="320" height="400" fill="var(--night)"/>
  <circle cx="63" cy="38" r="1.5" fill="var(--light)" opacity=".55"/><circle cx="106" cy="69" r="1" fill="var(--light)" opacity=".55"/><circle cx="149" cy="100" r="1.5" fill="var(--light)" opacity=".55"/><circle cx="192" cy="31" r="1" fill="var(--light)" opacity=".55"/><circle cx="235" cy="62" r="1.5" fill="var(--light)" opacity=".55"/><circle cx="278" cy="93" r="1" fill="var(--light)" opacity=".55"/><circle cx="51" cy="124" r="1.5" fill="var(--light)" opacity=".55"/><circle cx="94" cy="55" r="1" fill="var(--light)" opacity=".55"/><circle cx="137" cy="86" r="1.5" fill="var(--light)" opacity=".55"/>
  <g stroke="var(--light)" stroke-width="1.5" stroke-linejoin="round" stroke-linecap="round"><path d="M92 200v-72l68 -55 68 55v72z" fill="var(--mist)"/><path d="M80 130l80 -65 80 65" fill="none"/><rect x="141" y="130" width="38" height="50" fill="var(--night)"/><path d="M100 200v92"/><path d="M140 200v114"/><path d="M180 200v92"/><path d="M220 200v114"/><path d="M155 153Q84 230 210 265T270 315" fill="none" stroke="var(--light)"/></g>
  <path d="M20 368q70 -14 140 0t140 0M20 378q70 -14 140 0t140 0" fill="none" stroke="var(--mist)" opacity=".5"/>
</svg>
