<svg xmlns="http://www.w3.org/2000/svg" viewBox="0 0 320 400" style="--night:#30374e;--mist:#8c96b2;--light:#e3cba2">
  <rect width="320" height="400" fill="var(--night)"/>
  <circle cx="82" cy="116" r="1.5" fill="var(--light)" opacity=".55"/><circle cx="125" cy="47" r="1" fill="var(--light)" opacity=".55"/><circle cx="168" cy="78" r="1.5" fill="var(--light)" opacity=".55"/><circle cx="211" cy="109" r="1" fill="var(--light)" opacity=".55"/><circle cx="254" cy="40" r="1.5" fill="var(--light)" opacity=".55"/><circle cx="27" cy="71" r="1" fill="var(--light)" opacity=".55"/><circle cx="70" cy="102" r="1.5" fill="var(--light)" opacity=".55"/><circle cx="113" cy="33" r="1" fill="var(--light)" opacity=".55"/><circle cx="156" cy="64" r="1.5" fill="var(--light)" opacity=".55"/>
  <g stroke="var(--light)" stroke-width="1.5" stroke-linejoin="round" stroke-linecap="round"><path d="M117 213v-100h64v100M110 213h90v18h-90zM120 231v48M185 231v48" fill="none" stroke-width="4"/><path d="M72 279h180l-25 20H95z" fill="var(--mist)"/><path d="M106 297l-55 60" fill="none" stroke-width="2"/><path d="M131.5 297l-27.5 60" fill="none" stroke-width="3"/><path d="M157 297l0 60" fill="none" stroke-width="4"/><path d="M182.5 297l27.5 60" fill="none" stroke-width="2"/><path d="M208 297l55 60" fill="none" stroke-width="3"/><circle cx="156" cy="70" r="14" fill="var(--light)"/></g>
  <path d="M20 368q70 -14 140 0t140 0M20 378q70 -14 140 0t140 0" fill="none" stroke="var(--mist)" opacity=".5"/>
</svg>
