<svg xmlns="http://www.w3.org/2000/svg" viewBox="0 0 320 400" style="--night:#273344;--mist:#798b92;--light:#d6bda0">
  <rect width="320" height="400" fill="var(--night)"/>
  <circle cx="82" cy="64" r="1.5" fill="var(--light)" opacity=".55"/><circle cx="125" cy="95" r="1" fill="var(--light)" opacity=".55"/><circle cx="168" cy="26" r="1.5" fill="var(--light)" opacity=".55"/><circle cx="211" cy="57" r="1" fill="var(--light)" opacity=".55"/><circle cx="254" cy="88" r="1.5" fill="var(--light)" opacity=".55"/><circle cx="27" cy="119" r="1" fill="var(--light)" opacity=".55"/><circle cx="70" cy="50" r="1.5" fill="var(--light)" opacity=".55"/><circle cx="113" cy="81" r="1" fill="var(--light)" opacity=".55"/><circle cx="156" cy="112" r="1.5" fill="var(--light)" opacity=".55"/>
  <g stroke="var(--light)" stroke-width="1.5" stroke-linejoin="round" stroke-linecap="round"><path d="M78 134Q20 285 160 310Q300 285 242 134z" fill="none"/><ellipse cx="160" cy="134" rx="82" ry="18" fill="none"/><path d="M62 238q50 -20 100 0t96 0" fill="none"/><path d="M80 265l15 -22 15 22z" fill="var(--mist)"/><path d="M117.5 233l15 -22 15 22z" fill="var(--mist)"/><path d="M155 265l15 -22 15 22z" fill="var(--mist)"/><path d="M192.5 233l15 -22 15 22z" fill="var(--mist)"/><path d="M176 171a23 23 0 1 0 20 32a19 19 0 0 1-20 -32" fill="var(--light)"/></g>
  <path d="M20 368q70 -14 140 0t140 0M20 378q70 -14 140 0t140 0" fill="none" stroke="var(--mist)" opacity=".5"/>
</svg>
