<svg xmlns="http://www.w3.org/2000/svg" viewBox="0 0 320 400" style="--night:#273344;--mist:#798b92;--light:#d6bda0">
  <rect width="320" height="400" fill="var(--night)"/>
  <circle cx="101" cy="29" r="1.5" fill="var(--light)" opacity=".55"/><circle cx="144" cy="60" r="1" fill="var(--light)" opacity=".55"/><circle cx="187" cy="91" r="1.5" fill="var(--light)" opacity=".55"/><circle cx="230" cy="122" r="1" fill="var(--light)" opacity=".55"/><circle cx="273" cy="53" r="1.5" fill="var(--light)" opacity=".55"/><circle cx="46" cy="84" r="1" fill="var(--light)" opacity=".55"/><circle cx="89" cy="115" r="1.5" fill="var(--light)" opacity=".55"/><circle cx="132" cy="46" r="1" fill="var(--light)" opacity=".55"/><circle cx="175" cy="77" r="1.5" fill="var(--light)" opacity=".55"/>
  <g stroke="var(--light)" stroke-width="1.5" stroke-linejoin="round" stroke-linecap="round"><path d="M68 180q92 -145 184 0q-23 -20 -46 0q-23 -20 -46 0q-23 -20 -46 0q-23 -20 -46 0" fill="var(--mist)"/><path d="M160 170v115q0 25 -20 16" fill="none" stroke-width="4"/><path d="M102 215l3 8 8 3 -8 3 -3 8 -3 -8 -8 -3 8 -3z" fill="var(--light)"/><path d="M125.2 240l3 8 8 3 -8 3 -3 8 -3 -8 -8 -3 8 -3z" fill="var(--light)"/><path d="M148.4 215l3 8 8 3 -8 3 -3 8 -3 -8 -8 -3 8 -3z" fill="var(--light)"/><path d="M171.6 240l3 8 8 3 -8 3 -3 8 -3 -8 -8 -3 8 -3z" fill="var(--light)"/><path d="M194.8 215l3 8 8 3 -8 3 -3 8 -3 -8 -8 -3 8 -3z" fill="var(--light)"/><path d="M40 320v-34m15 -31v-20m222 72v-33m-15 -32v-25" fill="none"/></g>
  <path d="M20 368q70 -14 140 0t140 0M20 378q70 -14 140 0t140 0" fill="none" stroke="var(--mist)" opacity=".5"/>
</svg>
